<svg width="100" height="100" viewBox="0 0 100 100" fill="none" xmlns="http://www.w3.org/2000/svg">
<g clip-path="url(#clip0)">
<path d="M35.9028 22.1955C36.3563 22.1219 36.8474 22.1144 37.2723 22.315C37.9014 22.5686 38.3464 23.1709 38.4988 23.8202C38.5506 24.2819 38.5356 24.7713 38.3171 25.1929C37.9206 26.0645 36.8656 26.5673 35.9396 26.3256C34.9895 26.113 34.2826 25.1988 34.2915 24.2275C34.2732 23.2823 34.997 22.4188 35.9028 22.1955" fill="white"/>
<path d="M63.08 22.1921C63.5394 22.1202 64.0346 22.1192 64.4612 22.3302C65.1673 22.6414 65.6457 23.3783 65.6968 24.1419C65.6961 24.7302 65.4994 25.3442 65.0635 25.7558C64.6932 26.1465 64.1591 26.3624 63.6263 26.3863C62.8016 26.398 61.97 25.9056 61.647 25.1361C61.438 24.7253 61.4637 24.2518 61.4907 23.8067C61.647 23.022 62.3044 22.3735 63.08 22.1919" fill="white"/>
<path d="M60.3528 54.32C61.4277 54.315 62.5027 54.3141 63.5769 54.32C63.5635 58.5924 63.5745 62.8653 63.5722 67.1377C62.5011 67.1377 61.4302 67.1386 60.3589 67.137C60.3561 62.8643 60.3678 58.5924 60.3528 54.32" fill="white"/>
<path d="M63.08 22.1921C62.3045 22.3735 61.6471 23.0218 61.491 23.8067C61.4638 24.2518 61.438 24.7252 61.6471 25.1361C61.97 25.9055 62.8016 26.3982 63.6264 26.3864C64.1591 26.3623 64.693 26.1464 65.0635 25.7557C65.4995 25.3442 65.6964 24.7301 65.6968 24.1421C65.6457 23.378 65.1674 22.6414 64.4612 22.3301C64.0346 22.1192 63.5394 22.1201 63.08 22.1918V22.1921ZM35.9028 22.1954C34.9968 22.4187 34.2732 23.2821 34.2915 24.2274C34.2824 25.1986 34.9893 26.1129 35.9396 26.3255C36.8657 26.5669 37.9206 26.0644 38.3171 25.1928C38.5356 24.7709 38.5506 24.2818 38.4988 23.82C38.3464 23.1708 37.9014 22.5685 37.2723 22.3149C36.8474 22.1143 36.3564 22.1218 35.9028 22.1954V22.1954ZM25.5043 20.3274C26.1821 20.0304 26.9317 19.9852 27.662 20.0037C42.7208 20.0054 57.7796 20.0037 72.8385 20.0028C74.4814 19.9754 76.0822 20.9909 76.7462 22.4956C77.0263 23.0886 77.1451 23.7471 77.1334 24.4011C77.1268 25.8654 77.1484 27.3293 77.125 28.7925C76.6391 28.6074 76.1153 28.5582 75.5992 28.5549C58.5601 28.5584 41.5213 28.5565 24.4822 28.5572C23.9427 28.5718 23.3905 28.5947 22.881 28.7935C22.8592 27.2724 22.8709 25.7518 22.866 24.2316C22.8559 22.5551 23.9476 20.9457 25.5043 20.3274" fill="#CFD8DC"/>
<path d="M62.8274 41.4956C63.0686 41.396 63.3311 41.4012 63.5863 41.4211C63.5713 45.7078 63.5882 49.995 63.5781 54.2812L63.5772 54.3199C62.5028 54.3141 61.428 54.315 60.3531 54.3199V54.2824C60.3515 51.3185 60.3503 48.3555 60.3536 45.3914C58.2105 46.1039 56.0716 46.8286 53.9273 47.5371C53.9207 46.5691 53.9324 45.6012 53.9216 44.6337C56.8865 43.5766 59.8609 42.5463 62.8277 41.4954" fill="#CFD8DC"/>
<path d="M36.6012 43.0359C37.9441 42.0128 39.6246 41.4841 41.3027 41.421C42.9677 41.3624 44.6908 41.6319 46.1472 42.4778C47.2994 43.1378 48.2112 44.1944 48.7078 45.4239C49.2033 46.652 49.3605 48.01 49.2098 49.3225C48.8876 51.4248 47.264 53.1231 45.3665 53.9629C45.638 54.0439 45.9018 54.1486 46.155 54.2758C45.9892 54.3092 45.8202 54.3243 45.6511 54.321C43.4128 54.3051 41.174 54.336 38.9369 54.3058C38.9287 53.8199 38.917 53.3331 38.9477 52.8477C40.5616 52.8093 42.2641 53.0066 43.774 52.2991C45.0143 51.7755 45.9372 50.5891 46.1121 49.2498C46.2626 47.9739 46.1337 46.5787 45.3776 45.4987C44.7827 44.6437 43.7747 44.1702 42.7666 44.0205C41.4065 43.8306 39.9147 43.9661 38.7729 44.7916C37.6488 45.5823 37.0537 46.9776 37.0823 48.332C36.0464 48.3597 35.01 48.3386 33.9736 48.3421C33.994 47.7733 34.0371 47.2007 34.1854 46.6497C34.5417 45.2134 35.4208 43.9225 36.6012 43.0356" fill="#CFD8DC"/>
<path d="M22.8809 28.7933C23.3905 28.595 23.9426 28.5716 24.4822 28.5573C41.5212 28.5566 58.56 28.5582 75.5991 28.5549C76.1152 28.5582 76.639 28.6077 77.1249 28.7924C78.5975 29.3237 79.7902 30.6873 79.9442 32.2667C79.6446 31.1842 78.9973 30.1768 78.0293 29.5803C77.3283 29.143 76.5101 28.8903 75.6821 28.8978C58.5886 28.9095 41.4943 28.9095 24.4001 28.9095C23.1127 28.8861 21.8152 29.4416 20.9947 30.4438C20.5962 30.8696 20.3881 31.4192 20.1094 31.9203C20.3855 30.4799 21.5124 29.2794 22.8809 28.7933" fill="#A7B1B6"/>
<path d="M60.2928 54.2874L60.353 54.2824V54.3199C60.368 58.5924 60.3561 62.8645 60.3586 67.137C61.4302 67.1386 62.5013 67.1379 63.5719 67.1379C63.5743 62.8652 63.5635 58.5924 63.5771 54.3199L63.578 54.2815L63.6296 54.2857C64.1023 54.3427 64.5793 54.3082 65.0543 54.3134C69.0809 54.3108 73.1079 54.3059 77.134 54.3134C77.5995 61.0467 78.0368 67.782 78.4972 74.5153C78.5422 75.285 78.6401 76.0756 78.4268 76.8302L78.4074 76.8544C78.2098 77.0761 78.0961 77.3522 77.955 77.6098C77.1994 78.8426 75.7955 79.6727 74.34 79.6587C58.2772 79.6493 42.2154 79.6657 26.1537 79.6601C25.6498 79.6601 25.1365 79.6859 24.6453 79.5539C23.5353 79.2511 22.5289 78.5241 21.9699 77.5078C21.8527 77.2852 21.7442 77.0569 21.5876 76.8593L21.5677 76.8316C21.2991 75.8229 21.5173 74.7771 21.5508 73.755C21.9926 67.2783 22.4133 60.7992 22.861 54.3225C28.2141 54.3091 33.5682 54.315 38.9208 54.3192C38.926 54.627 38.9288 54.9349 38.9246 55.2427C40.6208 55.2752 42.3964 55.072 44.003 55.7438C45.0882 56.1673 45.979 57.0741 46.3222 58.1942C46.7002 59.4338 46.6566 60.8058 46.2125 62.0231C45.7983 63.1641 44.8062 64.0458 43.6475 64.3863C42.2408 64.8028 40.6735 64.767 39.3186 64.1855C38.2634 63.7348 37.4026 62.8261 37.0772 61.7187C36.9226 61.2307 36.8626 60.7179 36.8529 60.2086C35.8273 60.2152 34.8017 60.2128 33.7761 60.2095C33.7955 61.5068 34.1101 62.8245 34.8345 63.9136C35.6065 65.1049 36.8047 65.9749 38.1174 66.4852C39.7812 67.1344 41.6199 67.2792 43.3791 67.0097C45.0901 66.7388 46.7654 65.9724 47.9274 64.6613C48.995 63.477 49.5469 61.8926 49.6196 60.3124C49.7178 58.804 49.3704 57.2196 48.4126 56.0215C47.8742 55.3123 47.1333 54.8002 46.3772 54.3502C46.7452 54.3042 47.1167 54.3141 47.4872 54.3159C51.2806 54.3124 55.0735 54.3166 58.8661 54.3141C59.3415 54.3042 59.8189 54.3434 60.2928 54.2874" fill="#A7B1B6"/>
<path d="M20.9946 30.4437C21.815 29.4415 23.1127 28.886 24.4001 28.9095C41.4945 28.9095 58.5884 28.9095 75.6821 28.8977C76.5101 28.8902 77.3283 29.1429 78.0293 29.5802C78.9973 30.1767 79.6449 31.1841 79.9442 32.2667C80.0271 32.6489 80.0044 33.0455 79.961 33.432C79.0325 40.3882 78.0696 47.3398 77.1532 54.2972C73.2896 54.2906 69.4254 54.3007 65.5622 54.2965C64.9177 54.2913 64.2729 54.3206 63.6298 54.2857L63.5778 54.2815C63.5878 49.9948 63.5712 45.7076 63.5862 41.4209C63.3307 41.401 63.0682 41.3958 62.8275 41.4954C59.8611 42.5461 56.8861 43.5769 53.9213 44.6337C53.9323 45.6012 53.9206 46.5692 53.9274 47.5371C56.0714 46.8286 58.2106 46.1039 60.3537 45.3912C60.3504 48.3553 60.3511 51.3185 60.353 54.2822L60.2928 54.2871C55.8028 54.3206 51.3115 54.2881 46.8216 54.3049C46.5999 54.2998 46.3657 54.3684 46.155 54.2756C45.9019 54.1486 45.6382 54.0439 45.3668 53.9627C47.2641 53.1227 48.8878 51.4247 49.2101 49.3224C49.3606 48.0099 49.2031 46.6521 48.7081 45.424C48.2112 44.1942 47.2993 43.1377 46.1473 42.4779C44.6909 41.6318 42.9675 41.3625 41.3028 41.4209C39.6246 41.4837 37.9439 42.0124 36.6012 43.0357C35.4211 43.9224 34.5418 45.2131 34.1855 46.6498C34.0374 47.2008 33.9938 47.7729 33.9736 48.342C35.0103 48.3384 36.0467 48.3593 37.0824 48.3319C37.054 46.9774 37.6489 45.582 38.7732 44.7914C39.915 43.9657 41.4066 43.8305 42.7669 44.0203C43.7747 44.1699 44.783 44.6433 45.3778 45.4983C46.1339 46.5783 46.2628 47.9738 46.1121 49.2495C45.9373 50.5889 45.0146 51.7751 43.774 52.2989C42.2642 53.0067 40.5617 52.8092 38.948 52.8476L38.9079 52.8483C38.9243 53.3344 38.9053 53.8214 38.9187 54.3084C33.563 54.2998 28.2066 54.2981 22.85 54.3089C21.9368 47.4935 21.0092 40.68 20.0907 33.8656C19.985 33.2229 19.9491 32.5563 20.1099 31.9205C20.3883 31.4194 20.5967 30.8698 20.9949 30.4439" fill="#6E818B"/>
<path d="M21.5876 76.8594C21.744 77.057 21.853 77.2853 21.9697 77.5079C22.5289 78.5242 23.5353 79.2512 24.6453 79.554C25.1363 79.6862 25.6501 79.6602 26.1535 79.6602C42.2152 79.6661 58.2774 79.6494 74.3401 79.6586C75.7955 79.6726 77.1994 78.8429 77.9548 77.6099C78.0964 77.3521 78.2101 77.0762 78.4072 76.8545C78.0528 78.2272 76.9487 79.3665 75.5984 79.7898C74.8454 80.0528 74.0382 79.9864 73.2561 79.9949L26.3225 79.9942C25.6986 79.9989 25.0601 80.005 24.4592 79.81C23.0825 79.4017 21.9507 78.2514 21.5876 76.8592" fill="#6E818B"/>
</g>
<defs>
<clipPath id="clip0">
<rect width="60" height="60" fill="white" transform="translate(20 20)"/>
</clipPath>
</defs>
</svg>
