<svg xmlns="http://www.w3.org/2000/svg" xmlns:xlink="http://www.w3.org/1999/xlink" width="89" height="50" viewBox="0 0 89 50">
    <defs>
        <path id="a" d="M0 .102h85.986v45.67H0z"/>
        <path id="c" d="M0 .102h85.986v45.67H0z"/>
    </defs>
    <g fill="none" fill-rule="evenodd">
        <g opacity=".039" transform="translate(3 4)">
            <mask id="b" fill="#fff">
                <use xlink:href="#a"/>
            </mask>
            <path fill="#000" d="M9.6 45.772h67.86s7.839 0 8.51-10.475C86.23 31.271 83.284 24.139 75.446 23c0 0 .727-3.507-1.344-7.743C70.65 8.2 58.648 2.96 50.809 9.11c0 0-3.807-10.248-18.364-8.881C26.622.774 15.424 6.832 15.2 18.446c0 0-8.274-3.844-13.646 7.795-4.495 9.74 1.552 19.304 8.047 19.531" mask="url(#b)"/>
        </g>
        <g>
            <mask id="d" fill="#fff">
                <use xlink:href="#c"/>
            </mask>
            <path fill="#FFF" d="M9.6 45.772h67.86s7.839 0 8.51-10.475C86.23 31.271 83.284 24.139 75.446 23c0 0 .727-3.507-1.344-7.743C70.65 8.2 58.648 2.96 50.809 9.11c0 0-3.807-10.248-18.364-8.881C26.622.774 15.424 6.832 15.2 18.446c0 0-8.274-3.844-13.646 7.795-4.495 9.74 1.552 19.304 8.047 19.531" mask="url(#d)"/>
        </g>
    </g>
</svg>
