<svg width="100" height="100" viewBox="0 0 100 100" fill="none" xmlns="http://www.w3.org/2000/svg">
<g clip-path="url(#clip0)">
<path d="M39.4404 59.1808L38.9388 69.1327L29.6929 76.1574L20 59.0702L40.2268 23.8426L49.697 30.343L50.0091 40.8799L49.9197 40.9313L39.4404 59.1808Z" fill="#28B446"/>
<path d="M40.2268 23.8426L45.9826 47.788L50.0092 40.8799L49.697 27.0094L40.2268 23.8426Z" fill="#219B38"/>
<path d="M59.7717 23.8426L80 59.0702L69.0919 64.5871L60.4536 59.1232V59.0702L50.0092 40.8799L40.2268 23.8426H59.7717Z" fill="#FFD837"/>
<path d="M80 59.0702L70.3131 76.0468L29.6929 76.1574L39.4404 59.1808L60.4536 59.1232L80 59.0702Z" fill="#518EF8"/>
<path d="M29.6929 76.1575L46.6893 59.1609L39.4404 59.1808L29.6929 76.1575Z" fill="#3A5BBC"/>
<path d="M80 59.0701L57.8234 54.4893L60.4536 59.1231L80 59.0701Z" fill="#FBBB00"/>
</g>
<defs>
<clipPath id="clip0">
<rect width="60" height="60" fill="white" transform="translate(20 20)"/>
</clipPath>
</defs>
</svg>
