<svg xmlns="http://www.w3.org/2000/svg" width="100" height="100" fill="none" viewBox="0 0 100 100"><g filter="url(#filter0_d)"><rect width="60" height="60" x="20" y="20" fill="#36AB5E" rx="4"/></g><path fill="#C7E0D0" fill-rule="evenodd" d="M35.7894 20L35.7894 80L32.7894 80L32.7894 20L35.7894 20Z" clip-rule="evenodd" opacity=".5"/><g filter="url(#filter1_d)"><rect width="34.737" height="11.25" x="35.789" y="35" fill="#fff" rx="5.625"/></g><rect width="18.947" height="3.75" x="38.947" y="38.75" fill="#C3DEA7" fill-opacity=".5" rx="1"/><path fill="#C3DEA7" fill-opacity=".5" fill-rule="evenodd" d="M50.8614 51.6605C47.7696 51.6605 45.2632 54.1669 45.2632 57.2587C45.2632 60.3505 47.7696 62.857 50.8614 62.857H71.2439C74.3357 62.857 76.8421 60.3505 76.8421 57.2587C76.8421 54.1669 74.3357 51.6605 71.2439 51.6605H50.8614Z" clip-rule="evenodd" opacity=".3"/><defs><filter id="filter0_d" width="64" height="64" x="18" y="19" color-interpolation-filters="sRGB" filterUnits="userSpaceOnUse"><feFlood flood-opacity="0" result="BackgroundImageFix"/><feColorMatrix in="SourceAlpha" type="matrix" values="0 0 0 0 0 0 0 0 0 0 0 0 0 0 0 0 0 0 127 0"/><feOffset dy="1"/><feGaussianBlur stdDeviation="1"/><feColorMatrix type="matrix" values="0 0 0 0 0 0 0 0 0 0 0 0 0 0 0 0 0 0 0.2 0"/><feBlend in2="BackgroundImageFix" mode="normal" result="effect1_dropShadow"/><feBlend in="SourceGraphic" in2="effect1_dropShadow" mode="normal" result="shape"/></filter><filter id="filter1_d" width="48.737" height="25.25" x="28.789" y="30" color-interpolation-filters="sRGB" filterUnits="userSpaceOnUse"><feFlood flood-opacity="0" result="BackgroundImageFix"/><feColorMatrix in="SourceAlpha" type="matrix" values="0 0 0 0 0 0 0 0 0 0 0 0 0 0 0 0 0 0 127 0"/><feOffset dy="2"/><feGaussianBlur stdDeviation="3.5"/><feColorMatrix type="matrix" values="0 0 0 0 0 0 0 0 0 0 0 0 0 0 0 0 0 0 0.08 0"/><feBlend in2="BackgroundImageFix" mode="normal" result="effect1_dropShadow"/><feBlend in="SourceGraphic" in2="effect1_dropShadow" mode="normal" result="shape"/></filter></defs></svg>