<svg xmlns="http://www.w3.org/2000/svg" width="109" height="100" fill="none" viewBox="0 0 109 100"><g filter="url(#filter0_d)"><g filter="url(#filter1_d)"><rect width="81.301" height="59.35" x="17" y="25" fill="#fff" rx="4"/></g><path fill="#F1F3F4" fill-rule="evenodd" d="M99 80C99 82.2091 97.2091 84 95 84H76V25H95C97.2091 25 99 26.7909 99 29V80Z" clip-rule="evenodd"/><path fill="#00B8FA" fill-rule="evenodd" d="M99 31H76V25H95C97.2091 25 99 26.7909 99 29V31Z" clip-rule="evenodd"/><rect width="8" height="3" x="20" y="31" fill="#F1F3F4" rx="1.5"/><rect width="8" height="1" x="20" y="37" fill="#F1F3F4" rx=".5"/><rect width="8" height="1" x="20" y="40" fill="#F1F3F4" rx=".5"/><rect width="8" height="1" x="20" y="43" fill="#F1F3F4" rx=".5"/><rect width="8" height="1" x="20" y="46" fill="#F1F3F4" rx=".5"/><rect width="37" height="5" fill="#DDE1E3" opacity=".4" rx="1" transform="matrix(1 0 0 -1 35 43)"/><rect width="37" height="5" fill="#DDE1E3" opacity=".4" rx="1" transform="matrix(1 0 0 -1 35 67)"/><rect width="37" height="5" fill="#DDE1E3" opacity=".4" rx="1" transform="matrix(1 0 0 -1 35 51)"/><rect width="37" height="5" fill="#DDE1E3" opacity=".4" rx="1" transform="matrix(1 0 0 -1 35 75)"/><rect width="37" height="5" fill="#DDE1E3" opacity=".4" rx="1" transform="matrix(1 0 0 -1 35 59)"/><rect width="24.39" height="2.439" fill="#DDE1E3" opacity=".4" rx="1.22" transform="matrix(1 0 0 -1 35 33.5853)"/><rect width="17" height="5" x="78" y="39" fill="#fff"/><rect width="17" height="5" x="78" y="46" fill="#fff"/><circle cx="91.5" cy="77.5" r="10.5" fill="#fff"/><path fill="url(#paint0_linear)" d="M89.2346 76.4574C93.1313 78.4114 94.9825 79.1199 95.8853 79.497C97.9079 80.4569 98.125 80.7769 98.125 81.4168L98.045 74.8118V72.7549C98.045 72.7549 98.0222 72.5378 97.7479 72.4121L95.3825 71.3722C95.3825 71.3722 94.8911 71.2237 94.4911 71.3951L91.9543 72.2864L89.4174 71.3951C89.0175 71.2465 88.5261 71.3722 88.5261 71.3722L86.1835 72.4121C85.9093 72.5378 85.9093 72.7549 85.9093 72.7549V72.7892C85.9207 73.0063 86.0693 74.5833 89.2346 76.4574Z"/><path fill="#00B8FA" d="M95.931 79.5313C95.4396 79.2684 89.2346 76.4688 89.2346 76.4688H89.2575C86.1264 74.5833 85.9207 73.0063 85.9207 72.7892V74.8575L85.875 81.4396C85.875 81.7367 86.1264 81.8396 86.1264 81.8396L88.4233 82.7994C88.9604 83.0166 89.5089 82.7994 89.5089 82.7994L92.0229 81.8624L94.4683 82.7994C94.4683 82.7994 95.0168 83.0166 95.5539 82.7994L97.8507 81.8396C97.8507 81.8396 98.1021 81.7367 98.1021 81.4396C98.125 80.7997 97.9536 80.4683 95.931 79.5313Z"/><path fill="#fff" d="M88.7318 79.5312H95.8053C95.8053 79.5312 96.8109 79.4513 96.8109 78.3771C96.8109 78.3771 96.788 77.0744 95.6567 77.0401C95.6567 77.0401 95.7596 76.2516 95.0854 75.6346C95.0854 75.6346 94.2169 74.8918 93.017 75.486C93.017 75.486 92.2514 73.989 90.2631 74.8004C90.2631 74.8004 89.1318 75.2689 89.1089 76.4573C89.1089 76.4573 87.4634 76.583 87.4634 77.84C87.4748 77.8629 87.5091 79.5312 88.7318 79.5312Z"/><path fill="#36AB5E" fill-rule="evenodd" d="M80.5 40.25C79.81 40.25 79.25 40.81 79.25 41.5C79.25 42.19 79.81 42.75 80.5 42.75C81.19 42.75 81.75 42.19 81.75 41.5C81.75 40.81 81.19 40.25 80.5 40.25ZM80.4793 42.1766L81.2337 41.0108L81.0238 40.875L80.4032 41.8342L80.0075 41.5869L79.875 41.7989L80.4793 42.1766Z" clip-rule="evenodd"/><path fill="#36AB5E" fill-rule="evenodd" d="M80.5 47.25C79.81 47.25 79.25 47.81 79.25 48.5C79.25 49.19 79.81 49.75 80.5 49.75C81.19 49.75 81.75 49.19 81.75 48.5C81.75 47.81 81.19 47.25 80.5 47.25ZM80.4793 49.1766L81.2337 48.0108L81.0238 47.875L80.4032 48.8342L80.0075 48.5869L79.875 48.7989L80.4793 49.1766Z" clip-rule="evenodd"/><g filter="url(#filter2_d)"><circle cx="17.5" cy="22.5" r="10.5" fill="#F1F3F4"/></g><path fill="#fff" d="M23.3665 19.4266L22.6004 27H13.3994L12.7823 19.5732L17.9999 22.4493L23.3665 19.4266Z"/><path fill="#fff" d="M23.1067 18L18 22.7228L12.8933 18H18H23.1067Z"/><path fill="#F14336" d="M13.3995 20.1807V26.9999H12.5658C12.2534 26.9999 12 26.7504 12 26.4429V19.1764L12.9141 19.2009L13.3995 20.1807Z"/><path fill="#D32E2A" d="M24 19.1763V26.4428C24 26.7503 23.7466 26.9998 23.4339 26.9998H22.6005V20.1806L23.062 19.1071L24 19.1763Z"/><path fill="#F14336" d="M24 18.557V19.1764L22.6005 20.1808L18 23.482L13.3995 20.1808L12 19.1764V18.557C12 18.2495 12.2534 18 12.5658 18H12.8933L18 21.6645L23.1067 18H23.4339C23.7466 18 24 18.2495 24 18.557Z"/><path fill="#D32E2A" d="M13.3995 20.1807L12 19.9671V19.1764L13.3995 20.1807Z"/></g><defs><filter id="filter0_d" width="109" height="90" x="0" y="7" color-interpolation-filters="sRGB" filterUnits="userSpaceOnUse"><feFlood flood-opacity="0" result="BackgroundImageFix"/><feColorMatrix in="SourceAlpha" type="matrix" values="0 0 0 0 0 0 0 0 0 0 0 0 0 0 0 0 0 0 127 0"/><feOffset dy="2"/><feGaussianBlur stdDeviation="3.5"/><feColorMatrix type="matrix" values="0 0 0 0 0 0 0 0 0 0 0 0 0 0 0 0 0 0 0.08 0"/><feBlend in2="BackgroundImageFix" mode="normal" result="effect1_dropShadow"/><feBlend in="SourceGraphic" in2="effect1_dropShadow" mode="normal" result="shape"/></filter><filter id="filter1_d" width="95.301" height="73.35" x="10" y="20" color-interpolation-filters="sRGB" filterUnits="userSpaceOnUse"><feFlood flood-opacity="0" result="BackgroundImageFix"/><feColorMatrix in="SourceAlpha" type="matrix" values="0 0 0 0 0 0 0 0 0 0 0 0 0 0 0 0 0 0 127 0"/><feOffset dy="2"/><feGaussianBlur stdDeviation="3.5"/><feColorMatrix type="matrix" values="0 0 0 0 0 0 0 0 0 0 0 0 0 0 0 0 0 0 0.08 0"/><feBlend in2="BackgroundImageFix" mode="normal" result="effect1_dropShadow"/><feBlend in="SourceGraphic" in2="effect1_dropShadow" mode="normal" result="shape"/></filter><filter id="filter2_d" width="35" height="35" x="0" y="7" color-interpolation-filters="sRGB" filterUnits="userSpaceOnUse"><feFlood flood-opacity="0" result="BackgroundImageFix"/><feColorMatrix in="SourceAlpha" type="matrix" values="0 0 0 0 0 0 0 0 0 0 0 0 0 0 0 0 0 0 127 0"/><feOffset dy="2"/><feGaussianBlur stdDeviation="3.5"/><feColorMatrix type="matrix" values="0 0 0 0 0 0 0 0 0 0 0 0 0 0 0 0 0 0 0.08 0"/><feBlend in2="BackgroundImageFix" mode="normal" result="effect1_dropShadow"/><feBlend in="SourceGraphic" in2="effect1_dropShadow" mode="normal" result="shape"/></filter><linearGradient id="paint0_linear" x1="91.579" x2="95.452" y1="77.811" y2="71.103" gradientUnits="userSpaceOnUse"><stop stop-color="#0071B9"/><stop offset=".025" stop-color="#0078BF"/><stop offset=".133" stop-color="#008FD5"/><stop offset="1" stop-color="#2196F3"/></linearGradient></defs></svg>