<svg xmlns="http://www.w3.org/2000/svg" width="23" height="23" viewBox="0 0 23 23"><g fill="none" fill-rule="evenodd"><path fill="#E6E6E6" d="M16.716 2.154a.515.515 0 1 1 .001-1.03.515.515 0 0 1 0 1.03m-10.44 0a.515.515 0 1 1 0-1.03.515.515 0 0 1 0 1.03M20.967 0H1.89C1.297 0 .815.483.815 1.077v3.579h21.228v-3.58C22.043.484 21.561 0 20.966 0"/><path fill="#3A5BBC" d="M22.651 5.772l-1.509 7.87.617 8.183a1.036 1.036 0 0 1-1.033 1.113H1.946a1.035 1.035 0 0 1-1.032-1.113l.617-8.183-1.51-7.87a1.201 1.201 0 0 1 1.18-1.427h20.27c.755 0 1.322.688 1.18 1.427"/><path fill="#FFF" d="M10.954 11.588c0-1.536-1.285-2.786-2.865-2.786-1.58 0-2.866 1.25-2.866 2.786h.956c0-1.01.857-1.83 1.91-1.83s1.91.82 1.91 1.83c0 1.01-.857 1.831-1.91 1.831h-.891v.955h.891c1.053 0 1.91.822 1.91 1.83 0 1.01-.857 1.832-1.91 1.832s-1.91-.822-1.91-1.831h-.956c0 1.535 1.286 2.786 2.866 2.786s2.865-1.25 2.865-2.786c0-.96-.501-1.807-1.262-2.308a2.766 2.766 0 0 0 1.262-2.309M12.81 10.43l.49.82 1.889-1.128v8.391h.955V8.44z"/></g></svg>