<svg xmlns="http://www.w3.org/2000/svg" width="23" height="21" viewBox="0 0 23 21"><g fill="none" fill-rule="evenodd"><path fill="#167EE6" d="M23 13.726a.732.732 0 0 1-.097.368l-3.213 5.561a.751.751 0 0 1-.278.276.774.774 0 0 1-.383.101H3.972a.769.769 0 0 1-.662-.377L.1 14.094A.734.734 0 0 1 0 13.726h23z"/><path fill="#3D55CC" d="M23 13.726H11.5v6.306h7.53a.774.774 0 0 0 .382-.101.751.751 0 0 0 .278-.276l3.213-5.561a.732.732 0 0 0 .097-.368"/><path fill="#12B347" d="M7.795.016a.748.748 0 0 0-.276.28C7.192.864.428 12.658.102 13.226a.775.775 0 0 0-.004.76l3.207 5.76a.75.75 0 0 0 .278.286L11.5 6.353 7.825 0l-.03.016"/><path fill="#FFD500" d="M22.629 13.726a.781.781 0 0 0-.1-.38L15.274.384a.726.726 0 0 0-.64-.384H8.16a.73.73 0 0 0-.37.103l7.694 13.623h7.144z"/><path fill="#FA0" d="M23 13.726h-7.315L11.5 6.489V0h3.314a.757.757 0 0 1 .655.384c.327.568 7.102 12.392 7.429 12.962a.767.767 0 0 1 .102.38"/></g></svg>