<svg xmlns="http://www.w3.org/2000/svg" width="19" height="23" viewBox="0 0 19 23"><g fill="none" fill-rule="evenodd"><path fill="#167EE6" d="M17.143 23H.746A.749.749 0 0 1 0 22.25V.75C0 .337.334 0 .746 0h10.435c.198 0 .387.08.527.22l5.962 6c.14.14.219.331.219.53v15.5c0 .414-.334.75-.746.75"/><path fill="#2860CC" d="M11.84.22a.8.8 0 0 0-.552-.22H8.944v23h8.59c.432 0 .78-.336.78-.75V6.75c0-.199-.081-.39-.228-.53l-6.247-6z"/><path fill="#167EE6" d="M18.09 6.358L11.957.224A.767.767 0 0 0 11.415 0h-.767v6.9c0 .423.343.767.767.767h6.9V6.9a.767.767 0 0 0-.225-.542"/><path fill="#FFF" d="M9.881 18.315H3.748c-.424 0-.767-.382-.767-.852s.343-.852.767-.852h6.133c.423 0 .767.383.767.852 0 .47-.344.852-.767.852"/><path fill="#E6F3FF" d="M9.797 16.611h-.853v1.704h.853a.853.853 0 0 0 0-1.704"/><path fill="#FFF" d="M13.763 15.333H3.7c-.398 0-.72-.382-.72-.852 0-.469.322-.851.72-.851h10.062c.397 0 .718.382.718.851 0 .47-.321.852-.718.852"/><path fill="#E6F3FF" d="M14.588 13.63H9.37v1.703h5.218c.412 0 .745-.382.745-.852s-.333-.851-.745-.851"/><path fill="#FFF" d="M13.763 12.352H3.7c-.398 0-.72-.381-.72-.852 0-.47.322-.852.72-.852h10.062c.397 0 .718.383.718.852 0 .47-.321.852-.718.852"/><path fill="#E6F3FF" d="M14.588 10.648H9.37v1.704h5.218c.412 0 .745-.383.745-.852 0-.47-.333-.852-.745-.852"/></g></svg>