<svg xmlns="http://www.w3.org/2000/svg" xmlns:xlink="http://www.w3.org/1999/xlink" width="23" height="23" viewBox="0 0 23 23"><defs><path id="a" d="M.053.034h21.979v11.465H.052z"/></defs><g fill="none" fill-rule="evenodd"><g transform="translate(.426)"><mask id="b" fill="#fff"><use xlink:href="#a"/></mask><path fill="#2493D3" d="M13.232 8.428c-.015-1.33-.939-2.305-2.188-2.306-1.284 0-2.21 1.013-2.192 2.4.017 1.316.962 2.324 2.182 2.33 1.255.006 2.212-1.051 2.198-2.424zm-12.02 3.07C.834 8.77.439 6.045.083 3.313-.145 1.549.955.087 2.62.072 8.188.027 13.755.023 19.323.057c1.727.01 2.87 1.38 2.69 3.223-.268 2.746-.649 5.48-.983 8.22H1.213z" mask="url(#b)"/></g><path fill="#25AEF2" d="M11.528 16.143v.007c1.088 0 2.175.002 3.263 0 .379-.002.792.072 1.024-.385.247-.487-.004-.895-.228-1.273-.735-1.24-1.865-1.762-3.126-2.038-1.84-.405-4.081.476-4.987 1.942-.266.431-.475.89-.244 1.373.205.43.649.375 1.035.374h3.263M1.577 11.5h20.017c.45 2.386.982 4.758 1.332 7.162.378 2.59-.7 3.922-3.07 3.912-5.487-.026-10.97-.283-16.46-.175-.54.011-1.084-.018-1.609-.24-1.303-.55-1.99-1.518-1.734-3.021.437-2.56.831-5.137 1.524-7.638"/><path fill="#FDFEFE" d="M13.63 8.673c.013 1.36-.918 2.406-2.137 2.401-1.187-.006-2.106-1.005-2.122-2.308-.018-1.373.883-2.377 2.131-2.377 1.214 0 2.113.967 2.127 2.284M11.291 16.175H7.97c-.392 0-.845.057-1.053-.377-.235-.488-.022-.95.248-1.387.923-1.48 3.204-2.368 5.077-1.96 1.284.279 2.434.807 3.183 2.058.227.381.483.793.231 1.284-.236.462-.656.387-1.042.388-1.108.004-2.214.002-3.322.002v-.008z"/></g></svg>