<svg xmlns="http://www.w3.org/2000/svg" width="100" height="100" fill="none" viewBox="0 0 100 100"><g filter="url(#filter0_d)"><rect width="41" height="65" x="15" y="12" fill="#CFD8DC" rx="4"/></g><rect width="32" height="17" x="20" y="32" fill="#A7B1B6" opacity=".5" rx="3"/><rect width="32" height="17" x="20" y="53" fill="#A7B1B6" opacity=".5" rx="3"/><rect width="20" height="4" fill="#A7B1B6" opacity=".5" rx="2" transform="matrix(1 0 0 -1 32 26)"/><path fill="#A7B1B6" fill-rule="evenodd" d="M24.872 20.7054C25.0348 20.5427 25.2986 20.5427 25.4613 20.7054L28.628 23.8721C28.7907 24.0348 28.7907 24.2986 28.628 24.4613L25.4613 27.628C25.2986 27.7907 25.0348 27.7907 24.872 27.628L21.7054 24.4613C21.5427 24.2986 21.5427 24.0348 21.7054 23.8721L24.872 20.7054ZM22.5893 24.1667L25.1667 26.7441L27.7441 24.1667L25.1667 21.5893L22.5893 24.1667Z" clip-rule="evenodd"/><path fill="#A7B1B6" fill-rule="evenodd" d="M24.8131 20.6464C25.0084 20.4512 25.325 20.4512 25.5202 20.6464L28.6869 23.8131C28.8821 24.0084 28.8821 24.325 28.6869 24.5202L25.5202 27.6869C25.325 27.8821 25.0084 27.8821 24.8131 27.6869L21.6464 24.5202C21.4512 24.325 21.4512 24.0084 21.6464 23.8131L24.8131 20.6464ZM25.4024 20.7643C25.2722 20.6341 25.0611 20.6341 24.931 20.7643L21.7643 23.931C21.6341 24.0611 21.6341 24.2722 21.7643 24.4024L24.931 27.569C25.0611 27.6992 25.2722 27.6992 25.4024 27.569L28.569 24.4024C28.6992 24.2722 28.6992 24.0611 28.569 23.931L25.4024 20.7643ZM25.1077 21.5303C25.1403 21.4978 25.193 21.4978 25.2256 21.5303L27.803 24.1077C27.8355 24.1403 27.8355 24.193 27.803 24.2256L25.2256 26.803C25.193 26.8355 25.1403 26.8355 25.1077 26.803L22.5303 24.2256C22.4978 24.193 22.4978 24.1403 22.5303 24.1077L25.1077 21.5303ZM22.7071 24.1667L25.1667 26.6262L27.6262 24.1667L25.1667 21.7071L22.7071 24.1667Z" clip-rule="evenodd"/><g filter="url(#filter1_d)"><rect width="41" height="65" x="40" y="24" fill="#fff" rx="4"/></g><rect width="30" height="18" x="46" y="42" fill="#C0C8CC" opacity=".5" rx="3"/><rect width="30" height="18" x="46" y="63" fill="#C0C8CC" opacity=".5" rx="3"/><rect width="20" height="4" fill="#C0C8CC" opacity=".5" rx="2" transform="matrix(1 0 0 -1 56 37)"/><path fill="#A7B1B6" fill-rule="evenodd" d="M49.872 31.7054C50.0348 31.5427 50.2986 31.5427 50.4613 31.7054L53.628 34.8721C53.7907 35.0348 53.7907 35.2986 53.628 35.4613L50.4613 38.628C50.2986 38.7907 50.0348 38.7907 49.872 38.628L46.7054 35.4613C46.5427 35.2986 46.5427 35.0348 46.7054 34.8721L49.872 31.7054ZM47.5893 35.1667L50.1667 37.7441L52.7441 35.1667L50.1667 32.5893L47.5893 35.1667Z" clip-rule="evenodd"/><path fill="#A7B1B6" fill-rule="evenodd" d="M49.8131 31.6464C50.0084 31.4512 50.325 31.4512 50.5202 31.6464L53.6869 34.8131C53.8821 35.0084 53.8821 35.325 53.6869 35.5202L50.5202 38.6869C50.325 38.8821 50.0084 38.8821 49.8131 38.6869L46.6464 35.5202C46.4512 35.325 46.4512 35.0084 46.6464 34.8131L49.8131 31.6464ZM50.4024 31.7643C50.2722 31.6341 50.0611 31.6341 49.931 31.7643L46.7643 34.931C46.6341 35.0611 46.6341 35.2722 46.7643 35.4024L49.931 38.569C50.0611 38.6992 50.2722 38.6992 50.4024 38.569L53.569 35.4024C53.6992 35.2722 53.6992 35.0611 53.569 34.931L50.4024 31.7643ZM50.1077 32.5303C50.1403 32.4978 50.193 32.4978 50.2256 32.5303L52.803 35.1077C52.8355 35.1403 52.8355 35.193 52.803 35.2256L50.2256 37.803C50.193 37.8355 50.1403 37.8355 50.1077 37.803L47.5303 35.2256C47.4978 35.193 47.4978 35.1403 47.5303 35.1077L50.1077 32.5303ZM47.7071 35.1667L50.1667 37.6262L52.6262 35.1667L50.1667 32.7071L47.7071 35.1667Z" clip-rule="evenodd"/><circle cx="75" cy="23" r="11" fill="#A7B1B6"/><g clip-path="url(#clip0)"><rect width="11.436" height="11.436" x="75.087" y="15" fill="#fff" rx="1" transform="rotate(45 75.0866 15)"/><path fill="#A7B1B6" d="M74.9326 23.2444C74.5408 23.6616 73.8794 23.6654 73.4828 23.2527L73.0118 22.7627C72.7914 22.5334 72.4316 22.5125 72.1862 22.7147C71.9081 22.9437 71.8888 23.3628 72.1446 23.6165L73.4936 24.9542C73.889 25.3463 74.5286 25.3399 74.9161 24.9398L78.1382 21.6128C78.3776 21.3655 78.3652 20.9693 78.1107 20.7376C77.8643 20.5133 77.4837 20.5282 77.2556 20.771L74.9326 23.2444Z"/></g><defs><filter id="filter0_d" width="55" height="79" x="8" y="7" color-interpolation-filters="sRGB" filterUnits="userSpaceOnUse"><feFlood flood-opacity="0" result="BackgroundImageFix"/><feColorMatrix in="SourceAlpha" type="matrix" values="0 0 0 0 0 0 0 0 0 0 0 0 0 0 0 0 0 0 127 0"/><feOffset dy="2"/><feGaussianBlur stdDeviation="3.5"/><feColorMatrix type="matrix" values="0 0 0 0 0 0 0 0 0 0 0 0 0 0 0 0 0 0 0.08 0"/><feBlend in2="BackgroundImageFix" mode="normal" result="effect1_dropShadow"/><feBlend in="SourceGraphic" in2="effect1_dropShadow" mode="normal" result="shape"/></filter><filter id="filter1_d" width="55" height="79" x="33" y="19" color-interpolation-filters="sRGB" filterUnits="userSpaceOnUse"><feFlood flood-opacity="0" result="BackgroundImageFix"/><feColorMatrix in="SourceAlpha" type="matrix" values="0 0 0 0 0 0 0 0 0 0 0 0 0 0 0 0 0 0 127 0"/><feOffset dy="2"/><feGaussianBlur stdDeviation="3.5"/><feColorMatrix type="matrix" values="0 0 0 0 0 0 0 0 0 0 0 0 0 0 0 0 0 0 0.08 0"/><feBlend in2="BackgroundImageFix" mode="normal" result="effect1_dropShadow"/><feBlend in="SourceGraphic" in2="effect1_dropShadow" mode="normal" result="shape"/></filter><clipPath id="clip0"><rect width="16" height="16" fill="#fff" transform="translate(67 15)"/></clipPath></defs></svg>