<svg width="100" height="100" viewBox="0 0 100 100" fill="none" xmlns="http://www.w3.org/2000/svg">
<path d="M59.163 23.0021H32.3142V15.3554C32.3142 12.8215 34.3684 10.7673 36.9023 10.7673H54.5749C57.1088 10.7673 59.163 12.8215 59.163 15.3554V23.0021Z" fill="#7A868C"/>
<path d="M51.8561 19.4762V15.3554C51.8561 12.8215 49.8019 10.7673 47.268 10.7673H29.5954C27.0615 10.7673 25.0073 12.8215 25.0073 15.3554V64.8956C25.0073 68.5055 27.9337 71.4319 31.5436 71.4319H81.6136C85.2235 71.4319 88.1499 68.5055 88.1499 64.8956V28.0092C88.1499 24.3993 85.2235 21.4728 81.6136 21.4728H53.8528C52.7501 21.4728 51.8561 20.5788 51.8561 19.4762V19.4762Z" fill="#37474F"/>
<path d="M69.2707 30.4649H67.6965C66.7937 30.4649 66.0618 29.733 66.0618 28.8302V27.256C66.0618 26.3532 66.7937 25.6213 67.6965 25.6213H69.2707C70.1734 25.6213 70.9053 26.3532 70.9053 27.256V28.8302C70.9055 29.733 70.1736 30.4649 69.2707 30.4649Z" fill="#7A868C"/>
<path d="M75.4464 30.4649H73.8722C72.9694 30.4649 72.2375 29.733 72.2375 28.8302V27.256C72.2375 26.3532 72.9694 25.6213 73.8722 25.6213H75.4464C76.3492 25.6213 77.081 26.3532 77.081 27.256V28.8302C77.081 29.733 76.3492 30.4649 75.4464 30.4649Z" fill="#7A868C"/>
<path d="M81.6219 30.4649H80.0477C79.145 30.4649 78.4131 29.733 78.4131 28.8302V27.256C78.4131 26.3532 79.145 25.6213 80.0477 25.6213H81.6219C82.5247 25.6213 83.2566 26.3532 83.2566 27.256V28.8302C83.2568 29.733 82.5249 30.4649 81.6219 30.4649Z" fill="#7A868C"/>
<path d="M52.3956 32.0017H25.547V24.3549C25.547 21.821 27.6012 19.7668 30.1351 19.7668H47.8077C50.3416 19.7668 52.3958 21.821 52.3958 24.3549V32.0017H52.3956Z" fill="#3D55CC"/>
<path d="M45.0887 28.4757V24.3549C45.0887 21.821 43.0345 19.7668 40.5006 19.7668H22.828C20.2941 19.7668 18.2399 21.821 18.2399 24.3549V73.8951C18.2399 77.505 21.1663 80.4314 24.7762 80.4314H74.8462C78.4561 80.4314 81.3825 77.505 81.3825 73.8951V37.0087C81.3825 33.3988 78.4561 30.4723 74.8462 30.4723H47.0853C45.9827 30.4723 45.0887 29.5783 45.0887 28.4757V28.4757Z" fill="#167EE6"/>
<g opacity="0.2">
<path d="M62.5033 39.4644H60.9291C60.0263 39.4644 59.2944 38.7325 59.2944 37.8297V36.2555C59.2944 35.3527 60.0263 34.6208 60.9291 34.6208H62.5033C63.406 34.6208 64.1379 35.3527 64.1379 36.2555V37.8297C64.1381 38.7325 63.4062 39.4644 62.5033 39.4644Z" fill="white"/>
<path d="M68.679 39.4644H67.1048C66.202 39.4644 65.4701 38.7325 65.4701 37.8297V36.2555C65.4701 35.3527 66.202 34.6208 67.1048 34.6208H68.679C69.5818 34.6208 70.3136 35.3527 70.3136 36.2555V37.8297C70.3136 38.7325 69.5818 39.4644 68.679 39.4644Z" fill="white"/>
<path d="M74.8545 39.4644H73.2803C72.3775 39.4644 71.6457 38.7325 71.6457 37.8297V36.2555C71.6457 35.3527 72.3775 34.6208 73.2803 34.6208H74.8545C75.7573 34.6208 76.4892 35.3527 76.4892 36.2555V37.8297C76.4893 38.7325 75.7575 39.4644 74.8545 39.4644Z" fill="white"/>
</g>
<path d="M45.6282 41.0013H18.7796V33.3546C18.7796 30.8207 20.8338 28.7665 23.3677 28.7665H41.0403C43.5742 28.7665 45.6284 30.8207 45.6284 33.3546V41.0013H45.6282Z" fill="#CFD8DC"/>
<path d="M38.3213 37.4752V33.3544C38.3213 30.8206 36.2671 28.7664 33.7332 28.7664H16.0608C13.5269 28.7664 11.4727 30.8206 11.4727 33.3544V82.8946C11.4727 86.5045 14.399 89.4309 18.009 89.4309H68.079C71.6889 89.4309 74.6153 86.5045 74.6153 82.8946V46.0082C74.6153 42.3983 71.6889 39.4719 68.079 39.4719H40.318C39.2153 39.4719 38.3213 38.578 38.3213 37.4752V37.4752Z" fill="#ECEFF1"/>
<path d="M55.7359 48.464H54.1617C53.2589 48.464 52.527 47.7321 52.527 46.8293V45.2551C52.527 44.3524 53.2589 43.6205 54.1617 43.6205H55.7359C56.6387 43.6205 57.3706 44.3524 57.3706 45.2551V46.8292C57.3707 47.732 56.6388 48.464 55.7359 48.464Z" fill="#CFD8DC"/>
<path d="M61.9116 48.464H60.3374C59.4346 48.464 58.7028 47.7321 58.7028 46.8293V45.2551C58.7028 44.3524 59.4346 43.6205 60.3374 43.6205H61.9116C62.8144 43.6205 63.5463 44.3524 63.5463 45.2551V46.8292C63.5463 47.732 62.8144 48.464 61.9116 48.464Z" fill="#CFD8DC"/>
<path d="M68.0872 48.464H66.513C65.6102 48.464 64.8783 47.7321 64.8783 46.8293V45.2551C64.8783 44.3524 65.6102 43.6205 66.513 43.6205H68.0872C68.99 43.6205 69.7218 44.3524 69.7218 45.2551V46.8292C69.722 47.732 68.9901 48.464 68.0872 48.464Z" fill="#CFD8DC"/>
<path fill-rule="evenodd" clip-rule="evenodd" d="M56.3648 68.9314C56.366 69.0885 56.3245 69.2463 56.2417 69.3894C56.0643 69.6931 52.3557 76.0097 52.1771 76.3134C52.0922 76.4581 51.9704 76.575 51.8264 76.6564C51.6807 76.7378 51.5146 76.7826 51.3417 76.7826H32.2935C32.1193 76.7826 31.9532 76.7378 31.8088 76.6564C31.6648 76.575 31.5417 76.4581 31.4568 76.3134C31.2783 76.0097 27.5717 69.6931 27.3943 69.3894C27.3102 69.2463 27.2692 69.0885 27.2692 68.9314H56.3648Z" fill="#167EE6"/>
<path fill-rule="evenodd" clip-rule="evenodd" d="M37.13 51.8639C36.987 51.9454 36.8653 52.0642 36.7806 52.2117C36.3678 52.9192 27.8102 67.6021 27.3985 68.3085C27.3138 68.4548 27.2704 68.6163 27.2692 68.781C27.268 68.9441 27.3094 69.1068 27.3929 69.2555C27.5704 69.5701 31.2719 76.1126 31.4502 76.4272C31.535 76.5779 31.6566 76.699 31.8016 76.7826L41.817 59.7528L37.1677 51.8435C37.1549 51.8503 37.1428 51.8563 37.13 51.8639" fill="#12B347"/>
<path fill-rule="evenodd" clip-rule="evenodd" d="M55.8955 68.9314C55.8955 68.7675 55.8523 68.6044 55.7694 68.4581C55.3651 67.7484 46.9952 53.0289 46.5909 52.3212C46.508 52.1733 46.3894 52.0539 46.2492 51.9713C46.1097 51.89 45.9486 51.8435 45.7813 51.8435H37.5928C37.4255 51.8435 37.2648 51.89 37.1241 51.9713L46.8581 68.9314H55.8955Z" fill="#FFD500"/>
</svg>
