<svg xmlns="http://www.w3.org/2000/svg" width="100" height="100" fill="none" viewBox="0 0 100 100"><path fill="#6E818B" d="M32.4444 58.222C32.4444 61.6631 29.6633 64.4444 26.2222 64.4444C22.7811 64.4444 20 61.6631 20 58.222C20 54.7811 22.7811 52 26.2224 52H32.4442V58.2222L32.4444 58.222ZM35.5556 58.222C35.5556 54.7811 38.3367 52 41.7778 52C45.2189 52 48 54.7811 48 58.2222V73.7776C48 77.2187 45.2189 80 41.7776 80C38.3369 80 35.5556 77.2187 35.5556 73.7776V58.2222V58.222Z"/><path fill="#37474F" d="M41.7882 32.4235C38.3529 32.4235 35.5763 29.6471 35.5763 26.2117C35.5763 22.7764 38.3531 20 41.7882 20C45.2234 20 48 22.7764 48 26.2117V32.4237H41.788L41.7882 32.4235ZM41.7882 35.5765C45.2236 35.5765 48 38.3529 48 41.7883C48 45.2236 45.2236 48 41.788 48H26.212C22.7764 48 20 45.2236 20 41.788C20 38.3531 22.7764 35.5765 26.2117 35.5765H41.788H41.7882Z"/><path fill="#6E818B" d="M67.5556 41.7883C67.5556 38.3529 70.3367 35.5763 73.7776 35.5763C77.2187 35.5763 80 38.3529 80 41.7883C80 45.2236 77.2187 48 73.7776 48H67.5556V41.788V41.7883ZM64.4444 41.7883C64.4444 45.2236 61.6631 48 58.222 48C54.7811 48 52 45.2236 52 41.788V26.212C52 22.7764 54.7811 20 58.222 20C61.6629 20 64.4442 22.7764 64.4442 26.2117V41.788L64.4444 41.7883Z"/><path fill="#A7B1B6" d="M58.2115 67.5556C61.6469 67.5556 64.4235 70.3367 64.4235 73.7776C64.4235 77.2187 61.6469 80 58.2115 80C54.7764 80 52 77.2187 52 73.7776V67.5556H58.2118H58.2115ZM58.2115 64.4444C54.7764 64.4444 52 61.6631 52 58.222C52 54.7811 54.7764 52 58.2118 52H73.788C77.2234 52 80 54.7811 80 58.2222C80 61.6631 77.2234 64.4444 73.788 64.4444H58.2118H58.2115Z"/></svg>