<svg xmlns="http://www.w3.org/2000/svg" width="100" height="100" fill="none" viewBox="0 0 100 100"><g filter="url(#filter0_d)"><rect width="60" height="60" x="20" y="20" fill="#CFD8DC" rx="4"/></g><path fill="#A7B1B6" fill-rule="evenodd" d="M20 31.25L80 31.25V34.25H20V31.25Z" clip-rule="evenodd" opacity=".5"/><path fill="#A7B1B6" fill-rule="evenodd" d="M70.5263 20L70.5263 80L67.5263 80L67.5263 20L70.5263 20Z" clip-rule="evenodd" opacity=".5"/><g filter="url(#filter1_d)"><path fill="#fff" fill-rule="evenodd" d="M54.404 41.1067C55.1735 40.5219 56.2713 40.6717 56.8561 41.4412L62.446 48.7968C62.9143 49.4131 62.9221 50.2638 62.4652 50.8886L56.8754 58.533C56.3049 59.3131 55.21 59.4831 54.4298 58.9126C53.6497 58.3421 53.4797 57.2472 54.0502 56.467L57.605 51.6057H38.9474C37.9809 51.6057 37.1974 50.8222 37.1974 49.8557C37.1974 48.8892 37.9809 48.1057 38.9474 48.1057H57.5248L54.0695 43.5588C53.4847 42.7893 53.6344 41.6915 54.404 41.1067Z" clip-rule="evenodd"/></g><defs><filter id="filter0_d" width="74" height="74" x="13" y="15" color-interpolation-filters="sRGB" filterUnits="userSpaceOnUse"><feFlood flood-opacity="0" result="BackgroundImageFix"/><feColorMatrix in="SourceAlpha" type="matrix" values="0 0 0 0 0 0 0 0 0 0 0 0 0 0 0 0 0 0 127 0"/><feOffset dy="2"/><feGaussianBlur stdDeviation="3.5"/><feColorMatrix type="matrix" values="0 0 0 0 0 0 0 0 0 0 0 0 0 0 0 0 0 0 0.08 0"/><feBlend in2="BackgroundImageFix" mode="normal" result="effect1_dropShadow"/><feBlend in="SourceGraphic" in2="effect1_dropShadow" mode="normal" result="shape"/></filter><filter id="filter1_d" width="39.605" height="32.5" x="30.197" y="35.75" color-interpolation-filters="sRGB" filterUnits="userSpaceOnUse"><feFlood flood-opacity="0" result="BackgroundImageFix"/><feColorMatrix in="SourceAlpha" type="matrix" values="0 0 0 0 0 0 0 0 0 0 0 0 0 0 0 0 0 0 127 0"/><feOffset dy="2"/><feGaussianBlur stdDeviation="3.5"/><feColorMatrix type="matrix" values="0 0 0 0 0 0 0 0 0 0 0 0 0 0 0 0 0 0 0.08 0"/><feBlend in2="BackgroundImageFix" mode="normal" result="effect1_dropShadow"/><feBlend in="SourceGraphic" in2="effect1_dropShadow" mode="normal" result="shape"/></filter></defs></svg>