<svg xmlns="http://www.w3.org/2000/svg" width="101" height="100" fill="none" viewBox="0 0 101 100"><path fill="#2196F3" fill-rule="evenodd" d="M60.5162 14.5162C67.8711 7.16128 79.7957 7.16128 87.1506 14.5162C94.5054 21.871 94.5054 33.7957 87.1506 41.1505C79.7957 48.5054 67.8711 48.5054 60.5162 41.1505C53.1613 33.7957 53.1613 21.871 60.5162 14.5162ZM80.7866 20.8801C76.9464 17.04 70.7203 17.04 66.8802 20.8801C63.04 24.7203 63.04 30.9464 66.8801 34.7866C70.7203 38.6267 76.9464 38.6267 80.7866 34.7866C84.6268 30.9464 84.6268 24.7203 80.7866 20.8801Z" clip-rule="evenodd"/><path fill="#90C7FA" fill-opacity=".5" fill-rule="evenodd" d="M87.1506 14.5162C94.5055 21.8711 94.5055 33.7957 87.1506 41.1506L80.7866 34.7866C84.6268 30.9465 84.6268 24.7204 80.7866 20.8802L87.1506 14.5162Z" clip-rule="evenodd"/><path fill="#CFD8DC" fill-rule="evenodd" d="M60.5162 41.1506C53.1613 33.7957 53.1613 21.8711 60.5162 14.5162L66.8801 20.8802C63.04 24.7204 63.04 30.9465 66.8801 34.7866C70.7203 38.6268 76.9464 38.6268 80.7866 34.7866L87.1505 41.1506C79.7957 48.5055 67.8711 48.5055 60.5162 41.1506Z" clip-rule="evenodd"/><path fill="#6E818B" fill-rule="evenodd" d="M87.1506 41.1506C79.7957 48.5054 67.8711 48.5054 60.5162 41.1506L66.8801 34.7866C70.7203 38.6268 76.9464 38.6268 80.7866 34.7866L87.1506 41.1506Z" clip-rule="evenodd"/><path fill="#6E818B" fill-rule="evenodd" d="M87.1506 41.1506C79.7957 48.5054 67.8711 48.5054 60.5162 41.1506L66.8801 34.7866C70.7203 38.6268 76.9464 38.6268 80.7866 34.7866L87.1506 41.1506Z" clip-rule="evenodd"/><g filter="url(#filter0_d)"><path fill="#fff" fill-rule="evenodd" d="M14.4734 81C12.5629 81 11 78.4106 11 75.2464V37.7541C11 34.5894 12.5629 32 14.4734 32H65.5266C67.4368 32 69 34.5894 69 37.7541V75.2464C69 78.4106 67.4368 81 65.5266 81H14.4734Z" clip-rule="evenodd"/></g><path fill="#fff" fill-rule="evenodd" d="M49.6325 66H29.7003C29.1317 66 28.6666 65.6248 28.6666 65.1665V64.8335C28.6666 64.3752 29.1317 64 29.7003 64H49.6325C50.2011 64 50.6666 64.3752 50.6666 64.8335V65.1665C50.6666 65.6248 50.2011 66 49.6325 66" clip-rule="evenodd"/><rect width="36" height="4" x="27" y="37" fill="#CFD8DC" rx="2"/><rect width="21" height="3" x="29" y="50" fill="#CFD8DC" rx="1.5"/><rect width="21" height="3" x="29" y="60" fill="#CFD8DC" rx="1.5"/><rect width="21" height="3" x="29" y="71" fill="#CFD8DC" rx="1.5"/><path fill="#2196F3" fill-rule="evenodd" d="M27 31.9998C27 36.9704 22.9708 41 17.9998 41C13.0296 41 9 36.9704 9 31.9998C9 27.0292 13.0296 23 17.9998 23C22.9708 23 27 27.0292 27 31.9998" clip-rule="evenodd"/><path fill="#fff" fill-rule="evenodd" d="M16 27V37L20.5 32.5L16 27Z" clip-rule="evenodd"/><circle cx="21" cy="51" r="3" fill="#2196F3"/><circle cx="21" cy="61" r="3" fill="#6E818B"/><circle cx="21" cy="72" r="3" fill="#CFD8DC"/><defs><filter id="filter0_d" width="72" height="63" x="4" y="27" color-interpolation-filters="sRGB" filterUnits="userSpaceOnUse"><feFlood flood-opacity="0" result="BackgroundImageFix"/><feColorMatrix in="SourceAlpha" type="matrix" values="0 0 0 0 0 0 0 0 0 0 0 0 0 0 0 0 0 0 127 0"/><feOffset dy="2"/><feGaussianBlur stdDeviation="3.5"/><feColorMatrix type="matrix" values="0 0 0 0 0 0 0 0 0 0 0 0 0 0 0 0 0 0 0.08 0"/><feBlend in2="BackgroundImageFix" mode="normal" result="effect1_dropShadow"/><feBlend in="SourceGraphic" in2="effect1_dropShadow" mode="normal" result="shape"/></filter></defs></svg>